<svg width="14" height="15" viewBox="0 0 14 15" fill="none" xmlns="http://www.w3.org/2000/svg">
<path d="M13.4866 11.6116C13.4866 11.3326 13.375 11.0536 13.1741 10.8527L9.89286 7.57143L13.1741 4.29018C13.375 4.08929 13.4866 3.81027 13.4866 3.53125C13.4866 3.25223 13.375 2.97321 13.1741 2.77232L11.6562 1.25446C11.4554 1.05357 11.1763 0.941963 10.8973 0.941963C10.6183 0.941963 10.3393 1.05357 10.1384 1.25446L6.85714 4.53571L3.57589 1.25446C3.375 1.05357 3.09598 0.941963 2.81696 0.941963C2.53795 0.941963 2.25893 1.05357 2.05804 1.25446L0.540179 2.77232C0.339286 2.97321 0.227679 3.25223 0.227679 3.53125C0.227679 3.81027 0.339286 4.08929 0.540179 4.29018L3.82143 7.57143L0.540179 10.8527C0.339286 11.0536 0.227679 11.3326 0.227679 11.6116C0.227679 11.8906 0.339286 12.1696 0.540179 12.3705L2.05804 13.8884C2.25893 14.0893 2.53795 14.2009 2.81696 14.2009C3.09598 14.2009 3.375 14.0893 3.57589 13.8884L6.85714 10.6071L10.1384 13.8884C10.3393 14.0893 10.6183 14.2009 10.8973 14.2009C11.1763 14.2009 11.4554 14.0893 11.6562 13.8884L13.1741 12.3705C13.375 12.1696 13.4866 11.8906 13.4866 11.6116Z" fill="#9C9B9B"/>
</svg>
