<svg width="40" height="40" viewBox="0 0 40 40" fill="none" xmlns="http://www.w3.org/2000/svg">
<path d="M38.6422 18.4774L35.9185 17.2986L33.6055 12.7976C32.9804 11.5653 31.7122 10.7972 30.328 10.8062H26.345V9.68093C26.345 7.64479 24.7197 5.98373 22.6836 5.98373H3.64391C1.60778 5.98373 0.000298655 7.65372 0.000298655 9.68093V26.9167C-0.0175622 28.158 0.973715 29.1761 2.21504 29.1939C2.22397 29.1939 2.2329 29.1939 2.25077 29.1939H2.72408C2.72408 29.2832 2.71515 29.3189 2.71515 29.3725C2.70622 31.9266 4.76915 34.0074 7.32325 34.0163C9.87735 34.0253 11.9581 31.9623 11.9671 29.4082C11.9671 29.3904 11.9671 29.3815 11.9671 29.3636C11.9671 29.3011 11.9671 29.2743 11.9581 29.185H27.3453C27.3453 29.2743 27.3453 29.31 27.3453 29.3636C27.3363 31.9177 29.3993 33.9985 31.9534 34.0074C34.5075 34.0163 36.5882 31.9534 36.5972 29.3993C36.5972 29.3815 36.5972 29.3725 36.5972 29.3547C36.5972 29.2921 36.5972 29.2654 36.5972 29.1761H37.7492C38.9905 29.1761 39.9997 28.1669 39.9997 26.9256C39.9997 26.9167 39.9997 26.9077 39.9997 26.8899V20.5493C40.0175 19.6741 39.4817 18.8435 38.6422 18.4774ZM7.35004 32.2392C5.77828 32.2392 4.51016 30.9711 4.51016 29.3993C4.51016 27.8276 5.77828 26.5594 7.35004 26.5594C8.92179 26.5594 10.1899 27.8276 10.1899 29.3993C10.1899 30.9621 8.91286 32.2392 7.35004 32.2392ZM24.559 27.4257H11.5384C10.7883 25.7914 9.14505 24.7466 7.35004 24.7555C5.54609 24.7466 3.91182 25.7825 3.16167 27.4257H2.25077C1.97392 27.4257 1.78638 27.2114 1.78638 26.9345V22.3353H24.559V27.4257ZM24.559 9.68986V20.5493H1.78638V9.68986C1.78638 8.645 2.59905 7.77875 3.64391 7.77875H22.6836C23.7284 7.78768 24.5679 8.645 24.559 9.68093V9.68986ZM26.345 12.6012H30.328C31.0335 12.5923 31.6944 12.9763 32.0248 13.6103L33.8109 17.0664H26.345V12.6012ZM31.9801 32.2392C30.4084 32.2392 29.1403 30.9711 29.1403 29.3993C29.1403 27.8276 30.4084 26.5594 31.9801 26.5594C33.5519 26.5594 34.82 27.8276 34.82 29.3993C34.82 30.9621 33.5519 32.2392 31.9801 32.2392ZM38.2225 26.9345C38.2225 27.2114 38.035 27.4257 37.7581 27.4257H36.1685C35.0879 25.1127 32.3374 24.1125 30.0244 25.1931C29.042 25.6485 28.2472 26.4433 27.7918 27.4257H26.345V18.8525H35.0969L37.9367 20.1027C38.1153 20.192 38.2314 20.3885 38.2225 20.585V26.9345Z" fill="#4945FF"/>
<ellipse cx="17.8652" cy="20.071" rx="10" ry="21.8571" transform="rotate(40.8765 17.8652 20.071)" fill="#4945FF" fill-opacity="0.1"/>
</svg>
