<svg width="40" height="40" viewBox="0 0 40 40" fill="none" xmlns="http://www.w3.org/2000/svg">
<g clip-path="url(#clip0)">
<path d="M38.1201 3.53255L37.2326 2.64505C36.1779 1.59167 34.7482 1 33.2576 1C31.7669 1 30.3372 1.59167 29.2826 2.64505L26.1888 5.7388L25.1513 4.7013C24.8411 4.39516 24.4347 4.20556 24.0008 4.16456C23.5669 4.12356 23.1321 4.23368 22.7701 4.4763L17.4951 8.0638C14.1785 10.3179 11.3179 13.1785 9.0638 16.4951L5.4763 21.7701C5.23369 22.1321 5.12356 22.5669 5.16456 23.0008C5.20556 23.4347 5.39516 23.8411 5.7013 24.1513L6.7388 25.1888L3.64505 28.2826C2.59167 29.3372 2 30.7669 2 32.2576C2 33.7482 2.59167 35.1779 3.64505 36.2326L4.53255 37.1201C5.58765 38.1727 7.01717 38.7638 8.50755 38.7638C9.99793 38.7638 11.4275 38.1727 12.4826 37.1201L15.5763 34.0263L16.6138 35.0638C16.789 35.2376 16.9968 35.3751 17.2252 35.4684C17.4537 35.5617 17.6983 35.609 17.9451 35.6076C18.3188 35.607 18.6841 35.4961 18.9951 35.2888L24.2701 31.7013C27.5866 29.4472 30.4473 26.5866 32.7013 23.2701L36.2888 17.9951C36.4961 17.6841 36.607 17.3188 36.6076 16.945C36.609 16.6983 36.5617 16.4537 36.4684 16.2252C36.3751 15.9968 36.2376 15.789 36.0638 15.6138L35.0263 14.5763L38.1201 11.4825C39.1734 10.4279 39.7651 8.99818 39.7651 7.50755C39.7651 6.01692 39.1734 4.58724 38.1201 3.53255ZM11.6013 36.2326C10.7802 37.052 9.6676 37.5123 8.50755 37.5123C7.34751 37.5123 6.23485 37.052 5.4138 36.2326L4.53255 35.3513C3.71305 34.5303 3.25279 33.4176 3.25279 32.2576C3.25279 31.0975 3.71305 29.9849 4.53255 29.1638L7.6263 26.0701L8.0638 26.5138L4.97005 29.6076C4.2678 30.3107 3.87335 31.2638 3.87335 32.2576C3.87335 33.2513 4.2678 34.2044 4.97005 34.9076L5.85755 35.7951C6.56157 36.4956 7.51435 36.8889 8.50755 36.8889C9.50075 36.8889 10.4535 36.4956 11.1576 35.7951L14.2513 32.7013L14.6951 33.1388L11.6013 36.2326ZM8.9513 27.3951L13.3701 31.8138L10.2763 34.9076C9.80673 35.3758 9.17067 35.6387 8.50755 35.6387C7.84443 35.6387 7.20837 35.3758 6.7388 34.9076L5.85755 34.0263C5.38933 33.5567 5.1264 32.9207 5.1264 32.2576C5.1264 31.5944 5.38933 30.9584 5.85755 30.4888L8.9513 27.3951ZM35.1763 16.5013C35.2793 16.6042 35.3431 16.7398 35.3568 16.8847C35.3705 17.0296 35.3332 17.1747 35.2513 17.295L31.6701 22.5638C29.5014 25.7512 26.7513 28.5013 23.5638 30.67L18.2951 34.2513C18.1747 34.3332 18.0296 34.3705 17.8847 34.3568C17.7398 34.3431 17.6042 34.2793 17.5013 34.1763L14.6951 31.3763V31.3701L12.0451 28.7201L6.5888 23.2638C6.48583 23.1609 6.42199 23.0253 6.4083 22.8804C6.39461 22.7355 6.43192 22.5904 6.5138 22.4701L10.0951 17.2013C12.2638 14.0139 15.0139 11.2638 18.2013 9.09505L23.4701 5.5138C23.5749 5.44226 23.6994 5.40512 23.8263 5.40755C23.9903 5.40824 24.1474 5.47334 24.2638 5.5888L27.0701 8.3888V8.39505L35.1763 16.5013ZM28.3951 7.9513L31.4888 4.85755C31.9584 4.38933 32.5944 4.1264 33.2576 4.1264C33.9207 4.1264 34.5567 4.38933 35.0263 4.85755L35.9076 5.7388C36.3758 6.20837 36.6387 6.84443 36.6387 7.50755C36.6387 8.17067 36.3758 8.80673 35.9076 9.2763L32.8138 12.37L28.3951 7.9513ZM34.1388 13.6951L33.7013 13.2513L36.7951 10.1576C37.4973 9.45442 37.8918 8.5013 37.8918 7.50755C37.8918 6.5138 37.4973 5.56068 36.7951 4.85755L35.9076 3.97005C35.2035 3.26947 34.2508 2.87618 33.2576 2.87618C32.2644 2.87618 31.3116 3.26947 30.6076 3.97005L27.5138 7.0638L27.0701 6.6263L30.1638 3.53255C30.9849 2.71305 32.0975 2.25279 33.2576 2.25279C34.4176 2.25279 35.5303 2.71305 36.3513 3.53255L37.2326 4.4138C38.0521 5.23485 38.5123 6.34751 38.5123 7.50755C38.5123 8.66759 38.0521 9.78025 37.2326 10.6013L34.1388 13.6951Z" fill="#4945FF"/>
<path d="M29.2794 14.1375C29.1622 14.0204 29.0032 13.9545 28.8375 13.9545C28.6718 13.9545 28.5129 14.0204 28.3956 14.1375L15.1375 27.3956C15.0778 27.4533 15.0302 27.5223 14.9975 27.5985C14.9647 27.6748 14.9475 27.7568 14.9467 27.8398C14.946 27.9228 14.9618 28.0051 14.9933 28.0819C15.0247 28.1587 15.0711 28.2285 15.1298 28.2871C15.1885 28.3458 15.2582 28.3922 15.335 28.4237C15.4119 28.4551 15.4942 28.4709 15.5771 28.4702C15.6601 28.4695 15.7421 28.4522 15.8184 28.4195C15.8947 28.3867 15.9636 28.3391 16.0213 28.2794L29.2794 15.0213C29.3966 14.9041 29.4624 14.7451 29.4624 14.5794C29.4624 14.4137 29.3966 14.2547 29.2794 14.1375Z" fill="#4945FF"/>
<path d="M26.6275 11.4857C26.5103 11.3685 26.3514 11.3027 26.1857 11.3027C26.0199 11.3027 25.861 11.3685 25.7438 11.4857L12.4857 24.7438C12.426 24.8015 12.3784 24.8704 12.3456 24.9467C12.3128 25.0229 12.2956 25.105 12.2949 25.1879C12.2942 25.2709 12.31 25.3532 12.3414 25.43C12.3728 25.5069 12.4192 25.5766 12.4779 25.6353C12.5366 25.694 12.6064 25.7404 12.6832 25.7718C12.76 25.8033 12.8423 25.8191 12.9253 25.8184C13.0083 25.8176 13.0903 25.8004 13.1665 25.7676C13.2428 25.7349 13.3118 25.6873 13.3694 25.6276L26.6275 12.3694C26.7447 12.2522 26.8105 12.0933 26.8105 11.9276C26.8105 11.7618 26.7447 11.6029 26.6275 11.4857Z" fill="#4945FF"/>
<path d="M23.9757 8.83378C23.8585 8.71661 23.6995 8.65079 23.5338 8.65079C23.3681 8.65079 23.2091 8.71661 23.0919 8.83378L9.83381 22.0925C9.77412 22.1502 9.7265 22.2191 9.69375 22.2954C9.66099 22.3716 9.64375 22.4536 9.64303 22.5366C9.64231 22.6196 9.65812 22.7019 9.68955 22.7787C9.72097 22.8555 9.76738 22.9253 9.82606 22.984C9.88475 23.0427 9.95453 23.0891 10.0313 23.1205C10.1081 23.152 10.1904 23.1678 10.2734 23.167C10.3564 23.1663 10.4384 23.1491 10.5147 23.1163C10.5909 23.0836 10.6599 23.036 10.7176 22.9763L23.9757 9.71753C24.0928 9.60032 24.1587 9.44138 24.1587 9.27565C24.1587 9.10993 24.0928 8.95098 23.9757 8.83378Z" fill="#4945FF"/>
<path d="M17.7894 30.0476C17.7297 30.1052 17.6821 30.1742 17.6494 30.2504C17.6166 30.3267 17.5994 30.4087 17.5987 30.4917C17.5979 30.5747 17.6137 30.657 17.6452 30.7338C17.6766 30.8106 17.723 30.8804 17.7817 30.9391C17.8404 30.9977 17.9102 31.0441 17.987 31.0756C18.0638 31.107 18.1461 31.1228 18.2291 31.1221C18.312 31.1214 18.3941 31.1041 18.4703 31.0714C18.5466 31.0386 18.6155 30.991 18.6732 30.9313L31.9313 17.6726C31.991 17.6149 32.0386 17.546 32.0714 17.4697C32.1041 17.3935 32.1214 17.3114 32.1221 17.2285C32.1228 17.1455 32.107 17.0632 32.0756 16.9864C32.0441 16.9095 31.9977 16.8398 31.9391 16.7811C31.8804 16.7224 31.8106 16.676 31.7338 16.6446C31.657 16.6131 31.5747 16.5973 31.4917 16.598C31.4087 16.5988 31.3267 16.616 31.2504 16.6488C31.1742 16.6815 31.1052 16.7291 31.0476 16.7888L17.7894 30.0476Z" fill="#4945FF"/>
<path d="M26.5 24.6153C18.6001 33.7427 8.81074 38.212 4.63479 34.5976C0.458847 30.9833 3.47769 20.6541 11.3776 11.5267C19.2774 2.39924 29.0668 -2.07001 33.2428 1.54431C37.4187 5.15863 34.3999 15.4879 26.5 24.6153Z" fill="#4945FF" fill-opacity="0.1"/>
</g>
<defs>
<clipPath id="clip0">
<rect width="40" height="40" fill="white"/>
</clipPath>
</defs>
</svg>
