<svg width="40" height="38" viewBox="0 0 40 38" fill="none" xmlns="http://www.w3.org/2000/svg">
<g clip-path="url(#clip0)">
<ellipse cx="20.3652" cy="18.5443" rx="9.96661" ry="21.1317" transform="rotate(40.8765 20.3652 18.5443)" fill="#4945FF" fill-opacity="0.1"/>
<path d="M32.9337 8.85777L21.4494 4.08958C21.1617 3.97017 20.8383 3.97011 20.5506 4.08958L9.06627 8.85777C8.62887 9.03941 8.34375 9.46644 8.34375 9.94005V15.7364C8.34375 23.7177 13.1677 30.897 20.5571 33.9131C20.841 34.0289 21.159 34.0289 21.4429 33.9131C28.8322 30.897 33.6562 23.7177 33.6562 15.7364V9.94005C33.6562 9.46644 33.3712 9.03941 32.9337 8.85777ZM31.3125 15.7364C31.3125 22.5213 27.3281 28.7672 21 31.5552C14.841 28.8417 10.6875 22.7052 10.6875 15.7364V10.7224L21 6.44072L31.3125 10.7224V15.7364ZM19.7047 19.6865L24.7417 14.6496C25.1993 14.192 25.9413 14.1919 26.3989 14.6496C26.8566 15.1073 26.8566 15.8492 26.3989 16.3068L20.5334 22.1724C20.0756 22.6301 19.3337 22.6299 18.8761 22.1724L15.6011 18.8973C15.1434 18.4397 15.1434 17.6977 15.6011 17.2401C16.0587 16.7825 16.8007 16.7824 17.2583 17.2401L19.7047 19.6865Z" fill="#4945FF"/>
</g>
<defs>
<clipPath id="clip0">
<rect width="40" height="38" fill="white"/>
</clipPath>
</defs>
</svg>
